<?xml version="1.0" encoding="utf-8"?>
<!-- Generator: Adobe Illustrator 24.1.0, SVG Export Plug-In . SVG Version: 6.00 Build 0)  -->
<svg version="1.1" id="Ebene_1" xmlns="http://www.w3.org/2000/svg" xmlns:xlink="http://www.w3.org/1999/xlink" x="0px" y="0px"
	 viewBox="0 0 496 89.2" style="enable-background:new 0 0 496 89.2;" xml:space="preserve">
<style type="text/css">
	.st0{fill:#FFFFFF;}
</style>
<g>
	<g>
		<path class="st0" d="M138.1,31.4c-2.1-1-4.2-1.5-6.3-1.5c-2.7,0-5.1,0.6-7.3,1.9c-2.2,1.3-4,3-5.2,5.3c-1.3,2.2-1.9,4.7-1.9,7.3
			c0,2.7,0.6,5.1,1.9,7.3c1.3,2.2,3,4,5.2,5.3c2.2,1.3,4.7,1.9,7.3,1.9c2,0,4.1-0.5,6.2-1.4c2.1-0.9,3.9-2.2,5.5-3.8l4.9,5.4
			c-2.3,2.3-4.9,4.1-7.9,5.4c-3,1.3-6,2-9.1,2c-4.1,0-7.9-1-11.4-3c-3.4-2-6.1-4.6-8.1-8c-2-3.4-3-7.1-3-11.2c0-4.1,1-7.8,3-11.2
			c2-3.4,4.7-6,8.2-7.9c3.5-1.9,7.3-2.9,11.5-2.9c3.1,0,6.1,0.6,9,1.8c3,1.2,5.5,2.9,7.6,5.1l-4.8,6
			C141.9,33.8,140.2,32.4,138.1,31.4z"/>
		<path class="st0" d="M184.6,25.4c3.5,1.9,6.3,4.6,8.3,7.9c2,3.4,3,7.1,3,11.2c0,4.1-1,7.8-3,11.2c-2,3.4-4.8,6.1-8.3,8
			c-3.5,2-7.4,3-11.7,3c-4.3,0-8.1-1-11.7-3c-3.5-2-6.3-4.6-8.3-8c-2-3.4-3-7.1-3-11.2c0-4.1,1-7.8,3-11.2c2-3.4,4.8-6,8.3-7.9
			c3.5-1.9,7.4-2.9,11.7-2.9C177.2,22.5,181.1,23.5,184.6,25.4z M165.8,31.9c-2.3,1.3-4,3.1-5.4,5.3c-1.3,2.2-2,4.7-2,7.4
			s0.7,5.2,2,7.4c1.3,2.3,3.1,4,5.4,5.4c2.2,1.3,4.7,2,7.3,2c2.6,0,5-0.7,7.2-2c2.2-1.3,4-3.1,5.3-5.4c1.3-2.3,1.9-4.7,1.9-7.4
			s-0.6-5.2-1.9-7.4s-3-4-5.3-5.3c-2.2-1.3-4.6-1.9-7.2-1.9C170.5,29.9,168,30.6,165.8,31.9z"/>
		<path class="st0" d="M202.4,23.1h9.4l14.3,27.7l14.1-27.7h9.4v43h-7.6V35.3l-13.4,26.4h-5.3l-13.5-26.4v30.9h-7.5V23.1z"/>
		<path class="st0" d="M289.5,27c3,2.6,4.5,6.2,4.5,10.9c0,4.9-1.5,8.7-4.5,11.5c-3,2.7-7.2,4.1-12.6,4.1h-9.4v12.7h-8.2v-43h17.7
			C282.3,23.1,286.5,24.4,289.5,27z M283.6,44.2c1.7-1.4,2.5-3.4,2.5-6c0-2.6-0.8-4.6-2.5-5.9c-1.7-1.3-4-2-7.2-2h-9v15.9h9
			C279.6,46.2,282,45.5,283.6,44.2z"/>
		<path class="st0" d="M324,66.1l-7.4-12.7c-0.3,0-0.8,0.1-1.5,0.1h-9.7v12.7h-8.2v-43h18c5.6,0,9.9,1.3,12.9,3.9
			c3,2.6,4.6,6.2,4.6,10.9c0,3.4-0.7,6.2-2.2,8.6c-1.5,2.4-3.6,4.2-6.4,5.4l9.5,14.3H324z M305.3,46.2h9.7c3.1,0,5.5-0.7,7.1-2
			c1.6-1.4,2.5-3.4,2.5-6c0-2.6-0.8-4.6-2.5-5.9c-1.6-1.3-4-2-7.1-2h-9.7V46.2z"/>
		<path class="st0" d="M337.8,23.1h31.5v7.2H346v10.6h20.9v7.2H346V59h24v7.2h-32.3V23.1z"/>
		<path class="st0" d="M398.1,31c-2.3-0.7-4.4-1.1-6.1-1.1c-2,0-3.5,0.4-4.7,1.1c-1.1,0.7-1.7,1.8-1.7,3.1c0,1.2,0.4,2.2,1.2,3
			c0.8,0.8,1.8,1.5,3,2c1.2,0.5,2.9,1.1,5,1.7c2.9,0.9,5.3,1.7,7.2,2.6c1.9,0.9,3.5,2.1,4.8,3.8c1.3,1.7,2,3.9,2,6.6
			c0,2.6-0.7,4.9-2.1,6.9c-1.4,1.9-3.4,3.4-5.8,4.5c-2.5,1-5.3,1.5-8.5,1.5c-3.4,0-6.6-0.6-9.8-1.9c-3.2-1.2-6-2.9-8.4-5l3.4-7
			c2.2,2,4.6,3.6,7.3,4.7c2.7,1.1,5.2,1.7,7.6,1.7c2.3,0,4.1-0.4,5.4-1.3c1.3-0.9,2-2.1,2-3.6c0-1.2-0.4-2.2-1.2-3
			c-0.8-0.8-1.8-1.4-3-1.9c-1.2-0.5-2.9-1-5-1.7c-2.9-0.9-5.3-1.7-7.1-2.5c-1.8-0.8-3.4-2.1-4.7-3.7c-1.3-1.7-2-3.8-2-6.5
			c0-2.5,0.7-4.7,2-6.5c1.3-1.9,3.2-3.3,5.7-4.3c2.4-1,5.3-1.5,8.5-1.5c2.8,0,5.5,0.4,8.3,1.2c2.7,0.8,5.2,1.9,7.3,3.3l-3.3,7.2
			C402.7,32.8,400.5,31.8,398.1,31z"/>
		<path class="st0" d="M436,31c-2.3-0.7-4.4-1.1-6.1-1.1c-2,0-3.5,0.4-4.7,1.1c-1.1,0.7-1.7,1.8-1.7,3.1c0,1.2,0.4,2.2,1.2,3
			c0.8,0.8,1.8,1.5,3,2c1.2,0.5,2.9,1.1,5,1.7c2.9,0.9,5.3,1.7,7.2,2.6c1.9,0.9,3.5,2.1,4.8,3.8c1.3,1.7,2,3.9,2,6.6
			c0,2.6-0.7,4.9-2.1,6.9c-1.4,1.9-3.4,3.4-5.8,4.5c-2.5,1-5.3,1.5-8.5,1.5c-3.4,0-6.6-0.6-9.8-1.9c-3.2-1.2-6-2.9-8.4-5l3.4-7
			c2.2,2,4.6,3.6,7.3,4.7c2.7,1.1,5.2,1.7,7.6,1.7c2.3,0,4.1-0.4,5.4-1.3c1.3-0.9,2-2.1,2-3.6c0-1.2-0.4-2.2-1.2-3
			c-0.8-0.8-1.8-1.4-3-1.9c-1.2-0.5-2.9-1-5-1.7c-2.9-0.9-5.3-1.7-7.1-2.5c-1.8-0.8-3.4-2.1-4.7-3.7c-1.3-1.7-2-3.8-2-6.5
			c0-2.5,0.7-4.7,2-6.5c1.3-1.9,3.2-3.3,5.7-4.3c2.4-1,5.3-1.5,8.5-1.5c2.8,0,5.5,0.4,8.3,1.2c2.7,0.8,5.2,1.9,7.3,3.3l-3.3,7.2
			C440.6,32.8,438.4,31.8,436,31z"/>
		<path class="st0" d="M484.7,25.4c3.5,1.9,6.3,4.6,8.3,7.9c2,3.4,3,7.1,3,11.2c0,4.1-1,7.8-3,11.2c-2,3.4-4.8,6.1-8.3,8
			c-3.5,2-7.4,3-11.7,3c-4.3,0-8.1-1-11.7-3c-3.5-2-6.3-4.6-8.3-8c-2-3.4-3-7.1-3-11.2c0-4.1,1-7.8,3-11.2c2-3.4,4.8-6,8.3-7.9
			c3.5-1.9,7.4-2.9,11.7-2.9C477.3,22.5,481.2,23.5,484.7,25.4z M465.9,31.9c-2.3,1.3-4,3.1-5.4,5.3c-1.3,2.2-2,4.7-2,7.4
			s0.7,5.2,2,7.4c1.3,2.3,3.1,4,5.4,5.4c2.2,1.3,4.7,2,7.3,2c2.6,0,5-0.7,7.2-2c2.2-1.3,4-3.1,5.3-5.4c1.3-2.3,1.9-4.7,1.9-7.4
			s-0.6-5.2-1.9-7.4c-1.3-2.2-3-4-5.3-5.3c-2.2-1.3-4.6-1.9-7.2-1.9C470.5,29.9,468.1,30.6,465.9,31.9z"/>
	</g>
	<g>
		<path class="st0" d="M44.6,0C20,0,0,20,0,44.6c0,24.6,20,44.6,44.6,44.6c24.6,0,44.6-20,44.6-44.6C89.2,20,69.2,0,44.6,0z
			 M44.6,80.3c-19.7,0-35.7-16-35.7-35.7c0-19.7,16-35.7,35.7-35.7c19.7,0,35.7,16,35.7,35.7C80.3,64.3,64.3,80.3,44.6,80.3z"/>
	</g>
	<g>
		<path class="st0" d="M52.5,29c-2.4-1.2-4.9-1.7-7.4-1.7c-3.1,0-6,0.7-8.6,2.2c-2.6,1.5-4.7,3.6-6.2,6.2s-2.2,5.5-2.2,8.7
			c0,3.1,0.7,6,2.2,8.7c1.5,2.6,3.6,4.7,6.2,6.2c2.6,1.5,5.5,2.3,8.6,2.3c2.4,0,4.8-0.5,7.3-1.6c2.4-1.1,4.6-2.5,6.5-4.4l5.7,6.4
			c-2.7,2.7-5.8,4.8-9.3,6.4c-3.5,1.6-7.1,2.4-10.7,2.4c-4.9,0-9.4-1.2-13.4-3.5c-4.1-2.3-7.3-5.5-9.6-9.5c-2.3-4-3.5-8.4-3.5-13.2
			c0-4.8,1.2-9.2,3.6-13.2c2.4-4,5.6-7.1,9.7-9.4c4.1-2.3,8.6-3.4,13.6-3.4c3.6,0,7.2,0.7,10.7,2.2c3.5,1.5,6.5,3.5,8.9,6l-5.7,7.1
			C57.1,31.7,55,30.1,52.5,29z"/>
	</g>
</g>
</svg>
