<svg id="Ebene_1" data-name="Ebene 1" xmlns="http://www.w3.org/2000/svg" xmlns:xlink="http://www.w3.org/1999/xlink" viewBox="0 0 300.6 300.6"><defs><style>.cls-1{fill:url(#Unbenannter_Verlauf);}.cls-2{fill:#fff;}.cls-3{isolation:isolate;}</style><linearGradient id="Unbenannter_Verlauf" x1="150.3" y1="291.48" x2="150.3" y2="12.51" gradientTransform="matrix(1, 0, 0, -1, 0, 302)" gradientUnits="userSpaceOnUse"><stop offset="0" stop-color="#d286e1"/><stop offset="1" stop-color="#6c81d8"/></linearGradient></defs><circle class="cls-1" cx="150.3" cy="150.3" r="150.3"/><rect class="cls-2" x="57.7" y="193.7" width="184.6" height="26.6"/><path d="M85.8,81.3V92.4H84.1L78,84.9v7.5H75.9V81.3h1.7l6.1,7.5V81.3Z"/><path d="M97.1,84v8.5H95.2V91.4a2.73,2.73,0,0,1-1.2.9,4.28,4.28,0,0,1-4.2-.6,3.56,3.56,0,0,1-1-2.8V84h2v4.6a2.65,2.65,0,0,0,.5,1.7,1.75,1.75,0,0,0,1.5.6,2.06,2.06,0,0,0,1.7-.7,2.71,2.71,0,0,0,.6-1.9V84Z"/><path d="M104.9,83.9v1.9h-.5a2.14,2.14,0,0,0-1.8.7,2.74,2.74,0,0,0-.7,1.9v4.1h-2V84h1.9v1.2A3.39,3.39,0,0,1,104.9,83.9Z"/><path d="M113.2,83.5V84h2.3v1.6h-2.3v6.8h-2V85.6h-1.4V84h1.4v-.5a3.29,3.29,0,0,1,.8-2.2,3.11,3.11,0,0,1,2.2-.8,3,3,0,0,1,1.8.5l-.6,1.5a2,2,0,0,0-1.1-.3C113.6,82.2,113.2,82.6,113.2,83.5Z"/><path d="M125.5,84v8.5h-1.9V91.4a2.73,2.73,0,0,1-1.2.9,4.28,4.28,0,0,1-4.2-.6,3.56,3.56,0,0,1-1-2.8V84h2v4.6a2.65,2.65,0,0,0,.5,1.7,1.75,1.75,0,0,0,1.5.6,2.06,2.06,0,0,0,1.7-.7,2.71,2.71,0,0,0,.6-1.9V84Zm-6.4-1.6a1,1,0,1,1,.7.3A.91.91,0,0,1,119.1,82.4Zm3.1,0a1,1,0,1,1,.7.3A.91.91,0,0,1,122.2,82.4Z"/><path d="M133.2,83.9v1.9h-.5a2.14,2.14,0,0,0-1.8.7,2.74,2.74,0,0,0-.7,1.9v4.1h-2V84h1.9v1.2A3.62,3.62,0,0,1,133.2,83.9Z"/><path d="M142.9,88.8l-1.5,1.4v2.2h-2V80.7h2v7.1l4.1-3.8h2.4l-3.5,3.6,3.9,4.9h-2.4Z"/><path d="M158,84v8.5h-1.9V91.4a2.73,2.73,0,0,1-1.2.9,4.28,4.28,0,0,1-4.2-.6,3.56,3.56,0,0,1-1-2.8V84h2v4.6a2.65,2.65,0,0,0,.5,1.7,1.75,1.75,0,0,0,1.5.6,2.06,2.06,0,0,0,1.7-.7,2.71,2.71,0,0,0,.6-1.9V84Z"/><path d="M165.7,83.9v1.9h-.5a2.14,2.14,0,0,0-1.8.7,2.74,2.74,0,0,0-.7,1.9v4.1h-2V84h1.9v1.2A3.62,3.62,0,0,1,165.7,83.9Z"/><path d="M174.6,90.9v1.6h-7.3V91.2l4.7-5.6h-4.6V84h7.1v1.3l-4.7,5.6Z"/><path d="M184.5,88.9h-6.7a2.37,2.37,0,0,0,.9,1.5,2.79,2.79,0,0,0,1.8.6,3.17,3.17,0,0,0,2.3-.9l1.1,1.2a3.32,3.32,0,0,1-1.4,1,5.62,5.62,0,0,1-2,.3A5.14,5.14,0,0,1,178,92a3.54,3.54,0,0,1-1.6-1.6,4.28,4.28,0,0,1-.6-2.2,4,4,0,0,1,.6-2.2,4.89,4.89,0,0,1,1.6-1.6,4.38,4.38,0,0,1,2.3-.6,4,4,0,0,1,2.2.6,4,4,0,0,1,2,3.8ZM178.6,86a2.75,2.75,0,0,0-.8,1.5h4.8a2.24,2.24,0,0,0-.8-1.5,2.27,2.27,0,0,0-1.6-.6A4.42,4.42,0,0,0,178.6,86Z"/><path d="M199.7,90.7v1.8h-9.5V91.1l6.6-8h-6.4V81.3h9.2v1.4l-6.6,8Z"/><path d="M209.6,88.9H203a2.37,2.37,0,0,0,.9,1.5,2.79,2.79,0,0,0,1.8.6,3.17,3.17,0,0,0,2.3-.9l1.1,1.2a3.32,3.32,0,0,1-1.4,1,5.62,5.62,0,0,1-2,.3,5.14,5.14,0,0,1-2.5-.6,3.54,3.54,0,0,1-1.6-1.6,4.28,4.28,0,0,1-.6-2.2,4,4,0,0,1,.6-2.2,4.89,4.89,0,0,1,1.6-1.6,4.38,4.38,0,0,1,2.3-.6,4,4,0,0,1,2.2.6,4,4,0,0,1,2,3.8A2,2,0,0,1,209.6,88.9ZM203.8,86a2.75,2.75,0,0,0-.8,1.5h4.8A2.24,2.24,0,0,0,207,86a2.27,2.27,0,0,0-1.6-.6A3.35,3.35,0,0,0,203.8,86Z"/><path d="M212,82.2a1.23,1.23,0,0,1-.4-.8.91.91,0,0,1,.4-.8,1.24,1.24,0,1,1,1.8,1.7,1.27,1.27,0,0,1-.9.4A1.35,1.35,0,0,1,212,82.2Zm-.1,1.8h2v8.5h-2Z"/><path d="M221.9,92a1.88,1.88,0,0,1-.9.4,3.75,3.75,0,0,1-1.1.1,3.07,3.07,0,0,1-2.2-.7,2.86,2.86,0,0,1-.8-2.1V85.6h-1.4V84h1.4V82.1h2V84h2.3v1.6H219v4a1.06,1.06,0,0,0,1.2,1.2,1.5,1.5,0,0,0,1.1-.4Z"/><path d="M223.7,86.2a1.09,1.09,0,0,1-.4-.9,1.28,1.28,0,0,1,.4-1,1.49,1.49,0,0,1,.9-.4,1,1,0,0,1,.9.4,1.53,1.53,0,0,1,.4,1,1,1,0,0,1-.4.9,1.8,1.8,0,0,1-.9.4A3.55,3.55,0,0,1,223.7,86.2Zm0,6a1.09,1.09,0,0,1-.4-.9,1.28,1.28,0,0,1,.4-1,1.49,1.49,0,0,1,.9-.4,1,1,0,0,1,.9.4,1.53,1.53,0,0,1,.4,1,1,1,0,0,1-.4.9,1.8,1.8,0,0,1-.9.4A1.22,1.22,0,0,1,223.7,92.2Z"/><g class="cls-3"><g class="cls-3"><path d="M23,132.81l1.41-3.18a12.21,12.21,0,0,0,7.27,2.42c3.43,0,4.88-1.22,4.88-2.86,0-4.75-13.09-1.64-13.09-9.82,0-3.55,2.83-6.57,8.87-6.57a13.89,13.89,0,0,1,7.33,2l-1.29,3.18a12.16,12.16,0,0,0-6.07-1.73c-3.4,0-4.78,1.32-4.78,3,0,4.68,13.06,1.63,13.06,9.72,0,3.52-2.87,6.54-8.91,6.54C28.26,135.45,24.83,134.38,23,132.81Z"/><path d="M62.12,126.74a8.19,8.19,0,0,1-8.53,8.62,6.91,6.91,0,0,1-5.38-2.27v8.15H44.28v-22.9H48v2.2a6.91,6.91,0,0,1,5.57-2.39A8.18,8.18,0,0,1,62.12,126.74Zm-4,0a5,5,0,1,0-5,5.25A4.89,4.89,0,0,0,58.12,126.74Z"/><path d="M81.59,128H68.41c.47,2.45,2.51,4,5.44,4a6,6,0,0,0,4.56-1.82l2.11,2.42a8.53,8.53,0,0,1-6.76,2.74c-5.64,0-9.29-3.62-9.29-8.62a8.36,8.36,0,0,1,8.69-8.59c4.91,0,8.49,3.43,8.49,8.68C81.65,127.15,81.62,127.62,81.59,128Zm-13.21-2.62h9.53a4.58,4.58,0,0,0-4.75-4.09A4.64,4.64,0,0,0,68.38,125.38Z"/><path d="M98.39,132v3.15H83.89v-2.49l9.21-11.17h-9v-3.14H98.14v2.48L88.89,132Z"/><path d="M101.47,113.21a2.4,2.4,0,0,1,2.52-2.36,2.34,2.34,0,0,1,2.52,2.26,2.52,2.52,0,0,1-5,.1Zm.54,5.13h3.93v16.8H102Z"/><path d="M125.16,125.29v9.85h-3.71v-2c-.94,1.45-2.77,2.27-5.28,2.27-3.84,0-6.27-2.11-6.27-5s1.89-5,7-5h4.34v-.25c0-2.3-1.38-3.65-4.18-3.65a8.32,8.32,0,0,0-5.1,1.67l-1.54-2.87a11.82,11.82,0,0,1,7.11-2.07C122.36,118.15,125.16,120.44,125.16,125.29Zm-3.93,4.59v-1.95h-4.06c-2.67,0-3.4,1-3.4,2.24,0,1.41,1.2,2.33,3.21,2.33A4.29,4.29,0,0,0,121.23,129.88Z"/><path d="M130.2,111.79h3.93v23.35H130.2Z"/><path d="M153.35,125.29v9.85h-3.71v-2c-.94,1.45-2.77,2.27-5.29,2.27-3.84,0-6.26-2.11-6.26-5s1.89-5,7-5h4.34v-.25c0-2.3-1.38-3.65-4.19-3.65a8.31,8.31,0,0,0-5.09,1.67l-1.54-2.87a11.82,11.82,0,0,1,7.11-2.07C150.55,118.15,153.35,120.44,153.35,125.29Zm-3.93,4.59v-1.95h-4.06c-2.67,0-3.4,1-3.4,2.24,0,1.41,1.2,2.33,3.21,2.33A4.29,4.29,0,0,0,149.42,129.88Z"/><path d="M174.93,125.51v9.63H171V126c0-3-1.48-4.43-4-4.43-2.8,0-4.69,1.7-4.69,5.06v8.5h-3.94v-16.8h3.75v2.17a7.3,7.3,0,0,1,5.79-2.36C172,118.15,174.93,120.44,174.93,125.51Z"/><path d="M196.77,118.34v14.25c0,6.1-3.18,8.87-9.06,8.87-3.15,0-6.26-.82-8.18-2.39l1.76-3a10.14,10.14,0,0,0,6.2,2c3.71,0,5.34-1.7,5.34-5.1v-.88a7.38,7.38,0,0,1-5.63,2.23c-4.81,0-8.49-3.27-8.49-8.15s3.68-8.08,8.49-8.08a7.26,7.26,0,0,1,5.82,2.42v-2.23Zm-3.87,7.89c0-2.83-2.14-4.75-5.1-4.75s-5.13,1.92-5.13,4.75,2.14,4.82,5.13,4.82A4.76,4.76,0,0,0,192.9,126.23Z"/><path d="M217.66,128H204.47c.48,2.45,2.52,4,5.45,4a6,6,0,0,0,4.56-1.82l2.11,2.42a8.53,8.53,0,0,1-6.77,2.74c-5.63,0-9.28-3.62-9.28-8.62a8.35,8.35,0,0,1,8.69-8.59c4.9,0,8.49,3.43,8.49,8.68C217.72,127.15,217.69,127.62,217.66,128Zm-13.22-2.62H214a4.58,4.58,0,0,0-4.75-4.09A4.65,4.65,0,0,0,204.44,125.38Z"/><path d="M239.33,126.74a8.18,8.18,0,0,1-8.52,8.62,6.94,6.94,0,0,1-5.57-2.39v2.17H221.5V111.79h3.93v8.59a7,7,0,0,1,5.38-2.23A8.15,8.15,0,0,1,239.33,126.74Zm-4,0a5,5,0,1,0-5,5.25A4.89,4.89,0,0,0,235.34,126.74Z"/><path d="M241.69,126.74c0-5,3.78-8.59,8.94-8.59s9,3.55,9,8.59-3.75,8.62-9,8.62S241.69,131.77,241.69,126.74Zm13.94,0a5,5,0,1,0-5,5.25A4.9,4.9,0,0,0,255.63,126.74Z"/><path d="M273.47,134.23a6.21,6.21,0,0,1-3.78,1.13c-3.68,0-5.79-2-5.79-5.67v-8.08h-2.76v-3.15h2.76v-3.84h3.94v3.84h4.5v3.15h-4.5v8c0,1.64.82,2.52,2.33,2.52a3.51,3.51,0,0,0,2.2-.7Z"/></g><g class="cls-3"><path d="M18.93,155.25v1h4.62v3.15h-4.5v13.53H15.12V159.41H12.35v-3.15h2.77v-1.07c0-3.52,2.11-5.82,6-5.82a6.31,6.31,0,0,1,3.56.91l-1.1,3a3.89,3.89,0,0,0-2.18-.69C19.78,152.55,18.93,153.46,18.93,155.25Z"/><path d="M42.46,156.14v16.8H38.72V170.8a6.87,6.87,0,0,1-5.41,2.36c-4.31,0-7.24-2.36-7.24-7.43v-9.59H30v9.06c0,3.05,1.45,4.5,3.94,4.5,2.73,0,4.59-1.7,4.59-5.07v-8.49Zm-13.15-4.53a1.89,1.89,0,1,1,1.89,1.88A1.84,1.84,0,0,1,29.31,151.61Zm6.1,0a1.89,1.89,0,1,1,1.89,1.88A1.84,1.84,0,0,1,35.41,151.61Z"/><path d="M57.34,156v3.74a5.18,5.18,0,0,0-.91-.09c-3,0-4.88,1.76-4.88,5.19v8.15H47.62v-16.8h3.75v2.45C52.5,156.83,54.54,156,57.34,156Z"/><path d="M86.07,163.31v9.63H82.13v-9.13c0-3-1.47-4.43-4-4.43-2.8,0-4.69,1.7-4.69,5.06v8.5H69.52v-16.8h3.74v2.17A7.32,7.32,0,0,1,79.05,156C83.08,156,86.07,158.24,86.07,163.31Z"/><path d="M107,165.79H93.77c.48,2.46,2.52,4,5.45,4a6.06,6.06,0,0,0,4.56-1.82l2.11,2.42a8.53,8.53,0,0,1-6.77,2.74c-5.63,0-9.28-3.62-9.28-8.62A8.35,8.35,0,0,1,98.52,156c4.91,0,8.5,3.43,8.5,8.68C107,165,107,165.42,107,165.79Zm-13.22-2.61h9.54a4.59,4.59,0,0,0-4.76-4.09A4.65,4.65,0,0,0,93.74,163.18Z"/><path d="M127.06,156.14v16.8h-3.74V170.8a6.88,6.88,0,0,1-5.42,2.36c-4.31,0-7.23-2.36-7.23-7.43v-9.59h3.93v9.06c0,3.05,1.45,4.5,3.93,4.5,2.74,0,4.6-1.7,4.6-5.07v-8.49Z"/><path d="M148,165.79H134.77c.47,2.46,2.51,4,5.44,4a6,6,0,0,0,4.56-1.82l2.11,2.42a8.53,8.53,0,0,1-6.76,2.74c-5.64,0-9.29-3.62-9.29-8.62a8.36,8.36,0,0,1,8.69-8.59c4.91,0,8.49,3.43,8.49,8.68C148,165,148,165.42,148,165.79Zm-13.21-2.61h9.53a4.57,4.57,0,0,0-4.75-4.09A4.64,4.64,0,0,0,134.74,163.18Z"/><path d="M193,150.91l-7.3,22h-4.35L176,156.64l-5.54,16.3H166l-7.3-22H163l5.47,16.74,5.7-16.74h3.77l5.57,16.84,5.63-16.84Z"/><path d="M210.46,165.79H197.28c.47,2.46,2.52,4,5.44,4a6.06,6.06,0,0,0,4.57-1.82l2.1,2.42a8.53,8.53,0,0,1-6.76,2.74c-5.63,0-9.28-3.62-9.28-8.62A8.35,8.35,0,0,1,202,156c4.91,0,8.5,3.43,8.5,8.68C210.53,165,210.5,165.42,210.46,165.79Zm-13.21-2.61h9.53a4.57,4.57,0,0,0-4.75-4.09A4.64,4.64,0,0,0,197.25,163.18Z"/><path d="M232.14,164.54a8.19,8.19,0,0,1-8.53,8.62,6.93,6.93,0,0,1-5.56-2.39v2.17H214.3V149.59h3.93v8.59a7,7,0,0,1,5.38-2.23A8.16,8.16,0,0,1,232.14,164.54Zm-4,0a5,5,0,1,0-5,5.25A4.89,4.89,0,0,0,228.15,164.54Z"/><path d="M234,171.27l1.51-3a11.29,11.29,0,0,0,5.86,1.67c2.48,0,3.52-.69,3.52-1.86,0-3.21-10.38-.19-10.38-6.89,0-3.18,2.86-5.25,7.39-5.25a13.37,13.37,0,0,1,6.29,1.44l-1.51,3a9.22,9.22,0,0,0-4.81-1.26c-2.39,0-3.52.79-3.52,1.89,0,3.4,10.38.38,10.38,7,0,3.14-2.9,5.19-7.61,5.19A13.35,13.35,0,0,1,234,171.27Z"/><path d="M251.55,151a2.4,2.4,0,0,1,2.52-2.36,2.33,2.33,0,0,1,2.51,2.26,2.52,2.52,0,0,1-5,.1Zm.54,5.13H256v16.8h-3.93Z"/><path d="M271.28,172a6.23,6.23,0,0,1-3.78,1.13c-3.68,0-5.79-1.95-5.79-5.67v-8.08h-2.77v-3.15h2.77v-3.84h3.94v3.84h4.5v3.15h-4.5v8c0,1.64.81,2.52,2.32,2.52a3.52,3.52,0,0,0,2.21-.7Z"/><path d="M289.68,165.79H276.5c.47,2.46,2.52,4,5.44,4A6,6,0,0,0,286.5,168l2.11,2.42a8.53,8.53,0,0,1-6.76,2.74c-5.63,0-9.28-3.62-9.28-8.62a8.35,8.35,0,0,1,8.68-8.59c4.91,0,8.5,3.43,8.5,8.68C289.75,165,289.71,165.42,289.68,165.79Zm-13.21-2.61H286a4.57,4.57,0,0,0-4.75-4.09A4.64,4.64,0,0,0,276.47,163.18Z"/></g></g><g class="cls-3"><path d="M64.44,211.32l1.22-1.47A2.79,2.79,0,0,0,68,211.17c1.19,0,1.8-.71,1.8-2.12v-6H65.64v-1.79h6.25v7.64c0,2.72-1.35,4.06-3.89,4.06A4.36,4.36,0,0,1,64.44,211.32Z"/><path d="M82.93,209.08H76a2.66,2.66,0,0,0,2.85,2.11,3.14,3.14,0,0,0,2.39-1l1.1,1.27a4.46,4.46,0,0,1-3.54,1.44c-3,0-4.86-1.9-4.86-4.52a4.38,4.38,0,0,1,4.55-4.5A4.29,4.29,0,0,1,83,208.47C83,208.64,83,208.88,82.93,209.08ZM76,207.71h5a2.38,2.38,0,0,0-2.48-2.14A2.44,2.44,0,0,0,76,207.71Z"/><path d="M90.23,212.34a3.18,3.18,0,0,1-2,.6,2.71,2.71,0,0,1-3-3v-4.23H83.77v-1.65h1.45v-2h2.06v2h2.36v1.65H87.28v4.18c0,.86.43,1.32,1.22,1.32a1.93,1.93,0,0,0,1.16-.36Z"/><path d="M98.8,211.17v1.65H91.21v-1.3L96,205.67H91.31V204h7.36v1.3l-4.84,5.85Z"/><path d="M106,212.34a3.18,3.18,0,0,1-2,.6,2.71,2.71,0,0,1-3-3v-4.23H99.56v-1.65H101v-2h2.07v2h2.35v1.65h-2.35v4.18c0,.86.42,1.32,1.21,1.32a1.93,1.93,0,0,0,1.16-.36Z"/><path d="M127,207.78v5h-2.06V208c0-1.56-.73-2.32-2-2.32s-2.29.89-2.29,2.64v4.46H118.6V208c0-1.56-.72-2.32-2-2.32s-2.29.89-2.29,2.64v4.46h-2.06V204h2v1.12a3.65,3.65,0,0,1,2.89-1.22,3.29,3.29,0,0,1,3,1.47,4.11,4.11,0,0,1,3.3-1.47C125.5,203.92,127,205.12,127,207.78Z"/><path d="M138,209.08H131a2.67,2.67,0,0,0,2.86,2.11,3.15,3.15,0,0,0,2.39-1l1.1,1.27a4.46,4.46,0,0,1-3.54,1.44c-2.95,0-4.86-1.9-4.86-4.52a4.37,4.37,0,0,1,4.54-4.5,4.29,4.29,0,0,1,4.45,4.55C138,208.64,138,208.88,138,209.08ZM131,207.71h5a2.39,2.39,0,0,0-2.49-2.14A2.43,2.43,0,0,0,131,207.71Z"/><path d="M148.63,207.78v5h-2.06V208c0-1.56-.77-2.32-2.09-2.32a2.34,2.34,0,0,0-2.46,2.65v4.45H140V200.59H142V205a4,4,0,0,1,2.94-1.12C147.07,203.92,148.63,205.12,148.63,207.78Z"/><path d="M156.34,203.92v2a2.79,2.79,0,0,0-.47,0,2.4,2.4,0,0,0-2.56,2.72v4.27h-2.06V204h2v1.29A3.46,3.46,0,0,1,156.34,203.92Z"/><path d="M171,209.08h-6.9a2.66,2.66,0,0,0,2.85,2.11,3.14,3.14,0,0,0,2.39-1l1.1,1.27a4.45,4.45,0,0,1-3.54,1.44c-3,0-4.86-1.9-4.86-4.52a4.38,4.38,0,0,1,4.55-4.5,4.29,4.29,0,0,1,4.45,4.55C171,208.64,171,208.88,171,209.08ZM164,207.71h5a2.4,2.4,0,0,0-2.49-2.14A2.44,2.44,0,0,0,164,207.71Z"/><path d="M178.07,203.92v2a2.9,2.9,0,0,0-.48,0,2.4,2.4,0,0,0-2.55,2.72v4.27H173V204h2v1.29A3.44,3.44,0,0,1,178.07,203.92Z"/><path d="M182.17,203.56v.53h2.43v1.65h-2.36v7.08h-2.06v-7.08h-1.45v-1.65h1.45v-.56a2.84,2.84,0,0,1,3.15-3.05,3.28,3.28,0,0,1,1.86.48l-.58,1.54a2.06,2.06,0,0,0-1.14-.36C182.62,202.14,182.17,202.62,182.17,203.56Z"/><path d="M193.18,207.66v5.16h-1.94v-1.07a3.12,3.12,0,0,1-2.77,1.19c-2,0-3.28-1.11-3.28-2.64s1-2.62,3.66-2.62h2.27v-.13c0-1.21-.72-1.91-2.19-1.91a4.38,4.38,0,0,0-2.67.87l-.81-1.5a6.24,6.24,0,0,1,3.73-1.09C191.72,203.92,193.18,205.12,193.18,207.66Zm-2.06,2.41v-1H189c-1.4,0-1.78.53-1.78,1.17s.62,1.22,1.68,1.22A2.23,2.23,0,0,0,191.12,210.07Z"/><path d="M204.49,207.78v5h-2.06V208c0-1.56-.78-2.32-2.09-2.32a2.34,2.34,0,0,0-2.46,2.65v4.45h-2.06V200.59h2.06V205a3.94,3.94,0,0,1,2.93-1.12C202.92,203.92,204.49,205.12,204.49,207.78Z"/><path d="M212.2,203.92v2a2.9,2.9,0,0,0-.47,0,2.4,2.4,0,0,0-2.56,2.72v4.27h-2.06V204h2v1.29A3.46,3.46,0,0,1,212.2,203.92Z"/><path d="M222.11,209.08H215.2a2.66,2.66,0,0,0,2.85,2.11,3.12,3.12,0,0,0,2.39-1l1.11,1.27a4.46,4.46,0,0,1-3.54,1.44c-2.95,0-4.87-1.9-4.87-4.52a4.38,4.38,0,0,1,4.55-4.5,4.29,4.29,0,0,1,4.45,4.55C222.14,208.64,222.12,208.88,222.11,209.08Zm-6.92-1.37h5a2.39,2.39,0,0,0-2.49-2.14A2.43,2.43,0,0,0,215.19,207.71Z"/><path d="M232.79,207.78v5h-2.06V208c0-1.56-.77-2.32-2.09-2.32a2.34,2.34,0,0,0-2.46,2.65v4.45h-2.06V204h2v1.14a3.83,3.83,0,0,1,3-1.24C231.22,203.92,232.79,205.12,232.79,207.78Z"/><path d="M235,211.65a1.28,1.28,0,0,1,1.34-1.27,1.25,1.25,0,0,1,1.3,1.27,1.27,1.27,0,0,1-1.3,1.29A1.29,1.29,0,0,1,235,211.65Zm.12-10.36h2.44l-.42,7.71h-1.63Z"/></g></svg>