<?xml version="1.0" encoding="utf-8"?>
<!-- Generator: Adobe Illustrator 25.2.3, SVG Export Plug-In . SVG Version: 6.00 Build 0)  -->
<svg version="1.1" id="Ebene_1" xmlns="http://www.w3.org/2000/svg" xmlns:xlink="http://www.w3.org/1999/xlink" x="0px" y="0px"
	 viewBox="0 0 300 300" style="enable-background:new 0 0 300 300;" xml:space="preserve">
<style type="text/css">
	.st0{fill:#00FF9D;}
</style>
<circle class="st0" cx="150.31" cy="150.276" r="150.31"/>
<g>
	<rect x="71.697" y="193.745" width="156.702" height="26.612"/>
	<g>
		<path d="M85.829,81.34v11.134h-1.705l-6.14-7.54v7.54h-2.05V81.34h1.701l6.14,7.54v-7.54H85.829z"/>
		<path d="M97.122,83.979v8.495h-1.895v-1.082c-0.318,0.383-0.715,0.676-1.192,0.883c-0.478,0.206-0.99,0.309-1.542,0.309
			c-1.138,0-2.031-0.315-2.683-0.946c-0.652-0.631-0.979-1.567-0.979-2.808v-4.852h1.988v4.582c0,0.763,0.175,1.334,0.52,1.709
			c0.342,0.377,0.835,0.565,1.468,0.565c0.711,0,1.278-0.219,1.697-0.66c0.419-0.439,0.629-1.074,0.629-1.901v-4.295H97.122z"/>
		<path d="M104.87,83.883v1.893c-0.171-0.031-0.326-0.047-0.462-0.047c-0.777,0-1.379,0.225-1.814,0.676
			c-0.435,0.45-0.652,1.099-0.652,1.948v4.12h-1.988v-8.495h1.891v1.241C102.419,84.33,103.425,83.883,104.87,83.883z"/>
		<path d="M113.215,83.534v0.509h2.338v1.59h-2.272v6.841h-1.988v-6.841h-1.402v-1.59h1.402v-0.54c0-0.913,0.264-1.631,0.792-2.155
			c0.532-0.526,1.278-0.788,2.245-0.788c0.761,0,1.363,0.153,1.798,0.462l-0.559,1.495c-0.338-0.233-0.703-0.35-1.095-0.35
			C113.635,82.167,113.215,82.621,113.215,83.534z"/>
		<path d="M125.487,83.979v8.495h-1.895v-1.082c-0.318,0.383-0.715,0.676-1.192,0.883c-0.478,0.206-0.99,0.309-1.542,0.309
			c-1.138,0-2.031-0.315-2.683-0.946c-0.652-0.631-0.979-1.567-0.979-2.808v-4.852h1.988v4.582c0,0.763,0.175,1.334,0.52,1.709
			c0.342,0.377,0.835,0.565,1.468,0.565c0.711,0,1.278-0.219,1.697-0.66c0.419-0.439,0.629-1.074,0.629-1.901v-4.295H125.487z
			 M119.107,82.373c-0.179-0.181-0.272-0.408-0.272-0.683c0-0.287,0.093-0.52,0.272-0.701c0.179-0.179,0.408-0.27,0.683-0.27
			s0.505,0.091,0.683,0.27c0.183,0.181,0.272,0.414,0.272,0.701c0,0.276-0.089,0.503-0.272,0.683
			c-0.179,0.181-0.408,0.27-0.683,0.27S119.285,82.553,119.107,82.373z M122.194,82.373c-0.183-0.181-0.272-0.408-0.272-0.683
			c0-0.287,0.089-0.52,0.272-0.701c0.179-0.179,0.408-0.27,0.683-0.27s0.501,0.091,0.683,0.27c0.179,0.181,0.272,0.414,0.272,0.701
			c0,0.276-0.093,0.503-0.272,0.683c-0.183,0.181-0.408,0.27-0.683,0.27S122.373,82.553,122.194,82.373z"/>
		<path d="M133.235,83.883v1.893c-0.171-0.031-0.326-0.047-0.462-0.047c-0.777,0-1.379,0.225-1.814,0.676
			c-0.435,0.45-0.652,1.099-0.652,1.948v4.12h-1.988v-8.495h1.891v1.241C130.784,84.33,131.79,83.883,133.235,83.883z"/>
		<path d="M142.854,88.831l-1.48,1.4v2.243h-1.988V80.672h1.988v7.126l4.12-3.819h2.384l-3.546,3.563l3.88,4.932h-2.416
			L142.854,88.831z"/>
		<path d="M157.98,83.979v8.495h-1.895v-1.082c-0.318,0.383-0.715,0.676-1.192,0.883c-0.478,0.206-0.99,0.309-1.542,0.309
			c-1.138,0-2.031-0.315-2.683-0.946c-0.652-0.631-0.979-1.567-0.979-2.808v-4.852h1.988v4.582c0,0.763,0.175,1.334,0.52,1.709
			c0.342,0.377,0.835,0.565,1.468,0.565c0.711,0,1.278-0.219,1.697-0.66c0.419-0.439,0.629-1.074,0.629-1.901v-4.295H157.98z"/>
		<path d="M165.728,83.883v1.893c-0.171-0.031-0.326-0.047-0.462-0.047c-0.777,0-1.379,0.225-1.814,0.676
			c-0.435,0.45-0.652,1.099-0.652,1.948v4.12h-1.988v-8.495h1.891v1.241C163.277,84.33,164.283,83.883,165.728,83.883z"/>
		<path d="M174.555,90.883v1.59h-7.332v-1.256l4.66-5.647h-4.567v-1.592h7.111v1.258l-4.676,5.647H174.555z"/>
		<path d="M184.496,88.862h-6.664c0.117,0.627,0.419,1.122,0.913,1.487c0.493,0.367,1.107,0.55,1.837,0.55
			c0.936,0,1.705-0.307,2.307-0.922l1.068,1.225c-0.384,0.456-0.866,0.8-1.449,1.033s-1.243,0.35-1.973,0.35
			c-0.932,0-1.755-0.184-2.466-0.555c-0.711-0.371-1.258-0.889-1.647-1.551c-0.388-0.662-0.579-1.414-0.579-2.25
			c0-0.827,0.186-1.573,0.563-2.235s0.897-1.181,1.569-1.551c0.668-0.371,1.417-0.557,2.256-0.557c0.827,0,1.569,0.184,2.221,0.55
			c0.649,0.365,1.161,0.88,1.526,1.544c0.365,0.662,0.548,1.429,0.548,2.297C184.528,88.411,184.516,88.608,184.496,88.862z
			 M178.617,86.039c-0.439,0.377-0.707,0.878-0.8,1.503h4.819c-0.085-0.614-0.346-1.113-0.781-1.495
			c-0.435-0.381-0.975-0.571-1.623-0.571C179.596,85.476,179.06,85.664,178.617,86.039z"/>
		<path d="M199.669,90.724v1.75h-9.495v-1.384l6.551-8h-6.439V81.34h9.177v1.383l-6.555,8.002H199.669z"/>
		<path d="M209.642,88.862h-6.664c0.117,0.627,0.419,1.122,0.913,1.487c0.493,0.367,1.107,0.55,1.837,0.55
			c0.936,0,1.705-0.307,2.307-0.922l1.068,1.225c-0.384,0.456-0.866,0.8-1.449,1.033s-1.243,0.35-1.973,0.35
			c-0.932,0-1.755-0.184-2.466-0.555c-0.711-0.371-1.258-0.889-1.647-1.551c-0.388-0.662-0.579-1.414-0.579-2.25
			c0-0.827,0.186-1.573,0.563-2.235c0.377-0.662,0.897-1.181,1.569-1.551c0.668-0.371,1.417-0.557,2.256-0.557
			c0.827,0,1.569,0.184,2.221,0.55c0.649,0.365,1.161,0.88,1.526,1.544c0.365,0.662,0.548,1.429,0.548,2.297
			C209.673,88.411,209.661,88.608,209.642,88.862z M203.762,86.039c-0.439,0.377-0.707,0.878-0.8,1.503h4.819
			c-0.085-0.614-0.346-1.113-0.781-1.495c-0.435-0.381-0.975-0.571-1.623-0.571C204.741,85.476,204.205,85.664,203.762,86.039z"/>
		<path d="M211.96,82.237c-0.241-0.227-0.365-0.511-0.365-0.85s0.124-0.623,0.365-0.85c0.245-0.227,0.548-0.342,0.909-0.342
			s0.664,0.109,0.905,0.326c0.245,0.217,0.369,0.489,0.369,0.819c0,0.35-0.12,0.643-0.361,0.882
			c-0.237,0.239-0.544,0.359-0.913,0.359C212.508,82.58,212.205,82.466,211.96,82.237z M211.867,83.979h1.988v8.495h-1.988V83.979z"
			/>
		<path d="M221.855,92.011c-0.233,0.192-0.516,0.334-0.85,0.431c-0.334,0.095-0.687,0.142-1.06,0.142
			c-0.932,0-1.654-0.243-2.163-0.73c-0.509-0.489-0.761-1.2-0.761-2.132v-4.089h-1.402v-1.59h1.402v-1.94h1.988v1.94h2.272v1.59
			h-2.272v4.041c0,0.414,0.097,0.73,0.299,0.948c0.202,0.217,0.493,0.326,0.878,0.326c0.443,0,0.816-0.117,1.111-0.351
			L221.855,92.011z"/>
		<path d="M223.747,86.151c-0.252-0.25-0.381-0.565-0.381-0.948c0-0.392,0.124-0.711,0.373-0.953
			c0.249-0.245,0.559-0.367,0.932-0.367c0.369,0,0.68,0.122,0.928,0.367c0.249,0.243,0.377,0.561,0.377,0.953
			c0,0.383-0.128,0.697-0.384,0.948c-0.252,0.249-0.559,0.373-0.92,0.373C224.31,86.524,224.003,86.4,223.747,86.151z
			 M223.747,92.211c-0.252-0.249-0.381-0.565-0.381-0.948c0-0.392,0.124-0.709,0.373-0.953c0.249-0.245,0.559-0.367,0.932-0.367
			c0.369,0,0.68,0.122,0.928,0.367c0.249,0.245,0.377,0.561,0.377,0.953c0,0.383-0.128,0.699-0.384,0.948
			c-0.252,0.249-0.559,0.373-0.92,0.373C224.31,92.584,224.003,92.46,223.747,92.211z"/>
		<path d="M50.498,124.565l-4.412,4.534v7.118h-5.169V108.38h5.169v14.276l13.759-14.276h5.806l-11.693,12.447l12.408,15.39h-6.043
			L50.498,124.565z"/>
		<path d="M72.175,135.104c-1.724-0.928-3.068-2.221-4.035-3.878c-0.967-1.656-1.452-3.532-1.452-5.627s0.485-3.963,1.452-5.608
			c0.967-1.643,2.311-2.928,4.035-3.856s3.658-1.392,5.806-1.392c2.175,0,4.124,0.464,5.849,1.392
			c1.72,0.928,3.068,2.214,4.035,3.856c0.967,1.645,1.452,3.513,1.452,5.608s-0.485,3.971-1.452,5.627
			c-0.967,1.656-2.315,2.949-4.035,3.878c-1.724,0.928-3.674,1.39-5.849,1.39C75.833,136.495,73.899,136.032,72.175,135.104z
			 M82.517,130.411c1.192-1.219,1.786-2.823,1.786-4.812s-0.594-3.592-1.786-4.812c-1.196-1.219-2.707-1.829-4.536-1.829
			c-1.829,0-3.332,0.61-4.513,1.829c-1.181,1.219-1.771,2.823-1.771,4.812s0.59,3.592,1.771,4.812
			c1.181,1.219,2.683,1.829,4.513,1.829C79.81,132.24,81.321,131.631,82.517,130.411z"/>
		<path d="M95.95,135.819c-1.647-0.45-2.955-1.019-3.938-1.709l1.911-3.779c0.951,0.637,2.101,1.148,3.437,1.53
			c1.34,0.386,2.66,0.577,3.957,0.577c2.971,0,4.454-0.781,4.454-2.346c0-0.742-0.377-1.258-1.134-1.551
			c-0.753-0.291-1.969-0.569-3.639-0.835c-1.748-0.264-3.173-0.569-4.276-0.915c-1.099-0.344-2.054-0.948-2.862-1.81
			c-0.808-0.86-1.212-2.06-1.212-3.598c0-2.014,0.843-3.625,2.524-4.831c1.685-1.206,3.957-1.81,6.819-1.81
			c1.46,0,2.916,0.165,4.377,0.497c1.456,0.332,2.649,0.775,3.577,1.332l-1.907,3.777c-1.806-1.058-3.833-1.59-6.085-1.59
			c-1.456,0-2.563,0.219-3.32,0.656c-0.757,0.437-1.134,1.014-1.134,1.73c0,0.796,0.404,1.359,1.212,1.689
			c0.812,0.332,2.062,0.645,3.759,0.936c1.697,0.264,3.087,0.571,4.175,0.915c1.087,0.344,2.023,0.928,2.804,1.75
			c0.784,0.821,1.173,1.988,1.173,3.499c0,1.988-0.862,3.579-2.583,4.773c-1.724,1.192-4.07,1.788-7.041,1.788
			C99.274,136.495,97.592,136.269,95.95,135.819z"/>
		<path d="M128.439,135.064c-0.586,0.478-1.293,0.835-2.128,1.074s-1.716,0.357-2.645,0.357c-2.334,0-4.136-0.61-5.41-1.829
			c-1.27-1.219-1.907-2.994-1.907-5.328v-10.219h-3.499v-3.977h3.499v-4.852h4.971v4.852h5.685v3.977h-5.685v10.101
			c0,1.033,0.252,1.821,0.753,2.365c0.505,0.544,1.235,0.816,2.19,0.816c1.111,0,2.039-0.291,2.781-0.876L128.439,135.064z"/>
		<path d="M151.825,127.19h-16.664c0.291,1.565,1.052,2.804,2.287,3.718c1.231,0.915,2.765,1.371,4.594,1.371
			c2.33,0,4.252-0.767,5.763-2.305l2.668,3.062c-0.955,1.14-2.163,2.002-3.619,2.584c-1.46,0.583-3.103,0.874-4.932,0.874
			c-2.334,0-4.388-0.462-6.163-1.39c-1.779-0.928-3.149-2.221-4.116-3.878c-0.967-1.656-1.452-3.532-1.452-5.627
			c0-2.068,0.47-3.93,1.414-5.588c0.94-1.656,2.245-2.948,3.915-3.876c1.67-0.928,3.553-1.392,5.647-1.392
			c2.07,0,3.918,0.456,5.549,1.371c1.631,0.915,2.901,2.202,3.817,3.858c0.913,1.656,1.371,3.573,1.371,5.746
			C151.903,126.064,151.875,126.553,151.825,127.19z M137.13,120.132c-1.099,0.942-1.771,2.194-2.008,3.757h12.05
			c-0.214-1.536-0.862-2.783-1.949-3.738c-1.087-0.953-2.439-1.431-4.058-1.431C139.576,118.72,138.229,119.19,137.13,120.132z"/>
		<path d="M175.223,117.089c1.619,1.565,2.427,3.883,2.427,6.959v12.169h-4.971v-11.532c0-1.856-0.439-3.254-1.313-4.196
			c-0.874-0.94-2.12-1.412-3.74-1.412c-1.829,0-3.274,0.551-4.334,1.65c-1.06,1.101-1.588,2.683-1.588,4.751v10.738h-4.971v-21.235
			h4.73v2.744c0.823-0.981,1.856-1.724,3.103-2.227s2.652-0.755,4.214-0.755C171.46,114.743,173.607,115.526,175.223,117.089z"/>
		<path d="M183.86,106.71h4.971v29.507h-4.971V106.71z"/>
		<path d="M199.258,135.104c-1.724-0.928-3.068-2.221-4.035-3.878c-0.967-1.656-1.452-3.532-1.452-5.627s0.485-3.963,1.452-5.608
			c0.967-1.643,2.311-2.928,4.035-3.856s3.658-1.392,5.806-1.392c2.175,0,4.124,0.464,5.848,1.392
			c1.72,0.928,3.068,2.214,4.035,3.856c0.967,1.645,1.452,3.513,1.452,5.608s-0.485,3.971-1.452,5.627
			c-0.967,1.656-2.315,2.949-4.035,3.878c-1.724,0.928-3.674,1.39-5.848,1.39C202.916,136.495,200.982,136.032,199.258,135.104z
			 M209.599,130.411c1.192-1.219,1.786-2.823,1.786-4.812s-0.594-3.592-1.786-4.812c-1.196-1.219-2.707-1.829-4.536-1.829
			c-1.829,0-3.332,0.61-4.513,1.829c-1.181,1.219-1.771,2.823-1.771,4.812s0.59,3.592,1.771,4.812s2.683,1.829,4.513,1.829
			C206.892,132.24,208.403,131.631,209.599,130.411z"/>
		<path d="M223.032,135.819c-1.647-0.45-2.955-1.019-3.938-1.709l1.911-3.779c0.951,0.637,2.101,1.148,3.437,1.53
			c1.34,0.386,2.66,0.577,3.957,0.577c2.971,0,4.454-0.781,4.454-2.346c0-0.742-0.377-1.258-1.134-1.551
			c-0.753-0.291-1.969-0.569-3.639-0.835c-1.748-0.264-3.173-0.569-4.276-0.915c-1.099-0.344-2.054-0.948-2.862-1.81
			c-0.808-0.86-1.212-2.06-1.212-3.598c0-2.014,0.843-3.625,2.524-4.831c1.685-1.206,3.957-1.81,6.819-1.81
			c1.46,0,2.916,0.165,4.377,0.497c1.456,0.332,2.649,0.775,3.577,1.332l-1.907,3.777c-1.806-1.058-3.833-1.59-6.085-1.59
			c-1.456,0-2.563,0.219-3.32,0.656s-1.134,1.014-1.134,1.73c0,0.796,0.404,1.359,1.212,1.689c0.812,0.332,2.062,0.645,3.759,0.936
			c1.697,0.264,3.087,0.571,4.175,0.915c1.087,0.344,2.023,0.928,2.804,1.75c0.784,0.821,1.173,1.988,1.173,3.499
			c0,1.988-0.862,3.579-2.583,4.773c-1.724,1.192-4.07,1.788-7.041,1.788C226.356,136.495,224.675,136.269,223.032,135.819z"/>
		<path d="M262.29,127.19h-16.664c0.291,1.565,1.052,2.804,2.287,3.718c1.231,0.915,2.765,1.371,4.594,1.371
			c2.33,0,4.252-0.767,5.763-2.305l2.668,3.062c-0.955,1.14-2.163,2.002-3.619,2.584c-1.46,0.583-3.103,0.874-4.932,0.874
			c-2.334,0-4.388-0.462-6.163-1.39c-1.779-0.928-3.149-2.221-4.116-3.878c-0.967-1.656-1.452-3.532-1.452-5.627
			c0-2.068,0.47-3.93,1.414-5.588c0.94-1.656,2.245-2.948,3.915-3.876c1.67-0.928,3.553-1.392,5.647-1.392
			c2.07,0,3.918,0.456,5.549,1.371c1.631,0.915,2.901,2.202,3.817,3.858c0.913,1.656,1.371,3.573,1.371,5.746
			C262.368,126.064,262.341,126.553,262.29,127.19z M247.595,120.132c-1.099,0.942-1.771,2.194-2.008,3.757h12.05
			c-0.214-1.536-0.862-2.783-1.949-3.738c-1.087-0.953-2.439-1.431-4.058-1.431C250.042,118.72,248.694,119.19,247.595,120.132z"/>
		<path d="M68.855,148.147l-9.227,27.837H54.14l-6.878-20.6l-6.998,20.6h-5.53l-9.227-27.837h5.371l6.92,21.155l7.196-21.155h4.773
			l7.037,21.276l7.118-21.276H68.855z"/>
		<path d="M91.755,166.957H75.092c0.291,1.565,1.052,2.804,2.287,3.718c1.231,0.915,2.765,1.371,4.594,1.371
			c2.33,0,4.252-0.767,5.763-2.305l2.668,3.062c-0.955,1.14-2.163,2.002-3.619,2.584c-1.46,0.583-3.103,0.874-4.932,0.874
			c-2.334,0-4.388-0.462-6.163-1.39c-1.779-0.928-3.149-2.221-4.116-3.878s-1.452-3.532-1.452-5.627c0-2.068,0.47-3.93,1.414-5.588
			c0.94-1.656,2.245-2.948,3.915-3.876c1.67-0.928,3.553-1.392,5.647-1.392c2.07,0,3.918,0.456,5.549,1.371
			c1.631,0.915,2.901,2.202,3.817,3.858c0.913,1.656,1.371,3.573,1.371,5.746C91.833,165.83,91.806,166.32,91.755,166.957z
			 M77.06,159.898c-1.099,0.942-1.771,2.194-2.008,3.757h12.05c-0.214-1.536-0.862-2.783-1.95-3.738
			c-1.087-0.953-2.439-1.431-4.058-1.431C79.507,158.487,78.159,158.957,77.06,159.898z"/>
		<path d="M113.981,155.861c1.631,0.901,2.909,2.175,3.837,3.817c0.928,1.645,1.394,3.54,1.394,5.687
			c0,2.148-0.466,4.05-1.394,5.707s-2.206,2.936-3.837,3.837c-1.631,0.901-3.48,1.351-5.546,1.351c-1.46,0-2.792-0.252-3.996-0.755
			c-1.208-0.503-2.221-1.258-3.045-2.266v2.744h-4.73v-29.507h4.971v10.856c0.847-0.928,1.849-1.631,3.002-2.109
			c1.153-0.476,2.419-0.715,3.798-0.715C110.501,154.51,112.349,154.96,113.981,155.861z M112.392,170.178
			c1.177-1.219,1.767-2.823,1.767-4.812c0-1.988-0.59-3.592-1.767-4.812c-1.181-1.219-2.687-1.829-4.516-1.829
			c-1.192,0-2.264,0.272-3.219,0.816c-0.955,0.544-1.709,1.318-2.268,2.326c-0.555,1.008-0.835,2.173-0.835,3.499
			s0.28,2.491,0.835,3.499c0.559,1.008,1.313,1.783,2.268,2.326c0.955,0.544,2.027,0.816,3.219,0.816
			C109.705,172.007,111.212,171.397,112.392,170.178z"/>
		<path d="M139.297,156.757c1.658,1.497,2.485,3.757,2.485,6.781v12.447h-4.691v-2.584c-0.61,0.928-1.48,1.637-2.606,2.126
			c-1.126,0.491-2.485,0.736-4.078,0.736c-1.588,0-2.983-0.272-4.175-0.814c-1.192-0.544-2.113-1.299-2.765-2.268
			c-0.649-0.967-0.971-2.06-0.971-3.28c0-1.909,0.707-3.441,2.124-4.594c1.421-1.153,3.654-1.73,6.703-1.73h5.487v-0.318
			c0-1.483-0.443-2.623-1.332-3.419c-0.889-0.794-2.206-1.192-3.957-1.192c-1.192,0-2.365,0.184-3.518,0.555
			c-1.153,0.373-2.128,0.889-2.924,1.551l-1.95-3.619c1.115-0.847,2.454-1.497,4.019-1.948c1.561-0.45,3.219-0.676,4.971-0.676
			C135.246,154.51,137.639,155.26,139.297,156.757z M134.765,171.788c0.967-0.569,1.65-1.384,2.047-2.445v-2.466h-5.13
			c-2.862,0-4.295,0.942-4.295,2.823c0,0.901,0.357,1.617,1.076,2.148c0.715,0.53,1.709,0.796,2.982,0.796
			C132.687,172.644,133.794,172.358,134.765,171.788z"/>
		<path d="M166.485,156.856c1.619,1.565,2.427,3.883,2.427,6.959v12.169h-4.971v-11.532c0-1.856-0.439-3.254-1.313-4.196
			c-0.874-0.94-2.12-1.412-3.74-1.412c-1.829,0-3.274,0.551-4.334,1.65c-1.06,1.101-1.588,2.683-1.588,4.751v10.738h-4.971v-21.235
			h4.73v2.744c0.823-0.981,1.856-1.724,3.103-2.227c1.247-0.503,2.652-0.755,4.214-0.755
			C162.722,154.51,164.869,155.293,166.485,156.856z"/>
		<path d="M190.496,156.757c1.658,1.497,2.485,3.757,2.485,6.781v12.447h-4.691v-2.584c-0.61,0.928-1.48,1.637-2.606,2.126
			c-1.126,0.491-2.485,0.736-4.078,0.736c-1.588,0-2.982-0.272-4.175-0.814c-1.192-0.544-2.113-1.299-2.765-2.268
			c-0.649-0.967-0.971-2.06-0.971-3.28c0-1.909,0.707-3.441,2.124-4.594c1.421-1.153,3.654-1.73,6.703-1.73h5.487v-0.318
			c0-1.483-0.443-2.623-1.332-3.419c-0.889-0.794-2.206-1.192-3.957-1.192c-1.192,0-2.365,0.184-3.518,0.555
			c-1.153,0.373-2.128,0.889-2.924,1.551l-1.95-3.619c1.115-0.847,2.454-1.497,4.019-1.948c1.561-0.45,3.219-0.676,4.971-0.676
			C186.446,154.51,188.838,155.26,190.496,156.757z M185.964,171.788c0.967-0.569,1.65-1.384,2.047-2.445v-2.466h-5.13
			c-2.862,0-4.295,0.942-4.295,2.823c0,0.901,0.357,1.617,1.076,2.148c0.715,0.53,1.709,0.796,2.982,0.796
			C183.887,172.644,184.994,172.358,185.964,171.788z"/>
		<path d="M199.226,146.477h4.971v29.507h-4.971V146.477z"/>
		<path d="M230.912,154.749l-9.942,22.945c-0.928,2.305-2.054,3.93-3.382,4.87c-1.324,0.942-2.928,1.412-4.812,1.412
			c-1.06,0-2.105-0.171-3.142-0.517c-1.033-0.344-1.88-0.821-2.544-1.431l1.988-3.658c0.478,0.45,1.041,0.808,1.689,1.074
			c0.649,0.264,1.305,0.398,1.969,0.398c0.874,0,1.596-0.227,2.167-0.678c0.571-0.45,1.095-1.206,1.573-2.266l0.357-0.835
			l-9.266-21.314h5.169l6.68,15.707l6.722-15.707H230.912z"/>
		<path d="M235.774,175.586c-1.647-0.45-2.955-1.019-3.938-1.709l1.911-3.779c0.951,0.637,2.101,1.148,3.437,1.53
			c1.34,0.386,2.66,0.577,3.957,0.577c2.971,0,4.454-0.781,4.454-2.346c0-0.742-0.377-1.258-1.134-1.551
			c-0.753-0.291-1.969-0.569-3.639-0.835c-1.748-0.264-3.173-0.569-4.276-0.915c-1.099-0.344-2.054-0.948-2.862-1.81
			c-0.808-0.86-1.212-2.06-1.212-3.598c0-2.014,0.843-3.625,2.524-4.831c1.685-1.206,3.957-1.81,6.819-1.81
			c1.46,0,2.916,0.165,4.377,0.497c1.456,0.332,2.649,0.775,3.577,1.332l-1.907,3.777c-1.806-1.058-3.833-1.59-6.085-1.59
			c-1.456,0-2.563,0.219-3.32,0.656c-0.757,0.437-1.134,1.014-1.134,1.73c0,0.796,0.404,1.359,1.212,1.689
			c0.812,0.332,2.062,0.645,3.759,0.936c1.697,0.264,3.087,0.571,4.175,0.915s2.023,0.928,2.804,1.749
			c0.784,0.821,1.173,1.988,1.173,3.499c0,1.988-0.862,3.579-2.583,4.773c-1.724,1.192-4.07,1.788-7.041,1.788
			C239.098,176.261,237.416,176.036,235.774,175.586z"/>
		<path d="M275.036,166.957h-16.664c0.291,1.565,1.052,2.804,2.287,3.718c1.231,0.915,2.765,1.371,4.594,1.371
			c2.33,0,4.252-0.767,5.763-2.305l2.668,3.062c-0.955,1.14-2.163,2.002-3.619,2.584c-1.46,0.583-3.103,0.874-4.932,0.874
			c-2.334,0-4.388-0.462-6.163-1.39c-1.779-0.928-3.149-2.221-4.116-3.878s-1.452-3.532-1.452-5.627c0-2.068,0.47-3.93,1.414-5.588
			c0.94-1.656,2.245-2.948,3.915-3.876c1.67-0.928,3.553-1.392,5.647-1.392c2.07,0,3.918,0.456,5.549,1.371
			c1.631,0.915,2.901,2.202,3.817,3.858c0.913,1.656,1.371,3.573,1.371,5.746C275.113,165.83,275.086,166.32,275.036,166.957z
			 M260.341,159.898c-1.099,0.942-1.771,2.194-2.008,3.757h12.05c-0.214-1.536-0.862-2.783-1.949-3.738
			c-1.087-0.953-2.439-1.431-4.058-1.431C262.787,158.487,261.44,158.957,260.341,159.898z"/>
		<path class="st0" d="M84.26,212.117c-0.602-0.282-1.091-0.676-1.472-1.184l1.177-1.417c0.614,0.849,1.351,1.274,2.21,1.274
			c1.157,0,1.736-0.683,1.736-2.052v-5.757H83.95v-1.734h6.027v7.381c0,1.303-0.318,2.282-0.955,2.934
			c-0.633,0.652-1.569,0.979-2.8,0.979C85.515,212.539,84.858,212.397,84.26,212.117z"/>
		<path class="st0" d="M100.998,208.768h-6.664c0.117,0.627,0.419,1.122,0.913,1.487c0.493,0.367,1.107,0.55,1.837,0.55
			c0.936,0,1.705-0.307,2.307-0.922l1.068,1.225c-0.384,0.456-0.866,0.8-1.449,1.033c-0.583,0.233-1.243,0.35-1.973,0.35
			c-0.932,0-1.755-0.184-2.466-0.555c-0.711-0.371-1.258-0.889-1.647-1.551c-0.388-0.662-0.579-1.414-0.579-2.25
			c0-0.827,0.186-1.573,0.563-2.235c0.377-0.662,0.897-1.181,1.569-1.551c0.668-0.371,1.417-0.557,2.256-0.557
			c0.827,0,1.569,0.184,2.221,0.55c0.649,0.365,1.161,0.88,1.526,1.544c0.365,0.662,0.548,1.429,0.548,2.297
			C101.029,208.317,101.018,208.513,100.998,208.768z M95.119,205.945c-0.439,0.377-0.707,0.878-0.8,1.503h4.819
			c-0.085-0.614-0.346-1.113-0.781-1.495c-0.435-0.381-0.975-0.571-1.623-0.571C96.097,205.381,95.561,205.57,95.119,205.945z"/>
		<path class="st0" d="M108.35,211.917c-0.233,0.192-0.517,0.334-0.85,0.431c-0.334,0.095-0.687,0.142-1.06,0.142
			c-0.932,0-1.654-0.243-2.163-0.73c-0.509-0.489-0.761-1.2-0.761-2.132v-4.089h-1.402v-1.59h1.402v-1.94h1.988v1.94h2.272v1.59
			h-2.272v4.041c0,0.414,0.097,0.73,0.299,0.948c0.202,0.217,0.493,0.326,0.878,0.326c0.443,0,0.816-0.117,1.111-0.351
			L108.35,211.917z"/>
		<path class="st0" d="M117.153,210.789v1.59h-7.332v-1.256l4.66-5.647h-4.567v-1.592h7.111v1.258l-4.676,5.647H117.153z"/>
		<path class="st0" d="M124.672,211.917c-0.233,0.192-0.517,0.334-0.85,0.431c-0.334,0.095-0.687,0.142-1.06,0.142
			c-0.932,0-1.654-0.243-2.163-0.73c-0.509-0.489-0.761-1.2-0.761-2.132v-4.089h-1.402v-1.59h1.402v-1.94h1.988v1.94h2.272v1.59
			h-2.272v4.041c0,0.414,0.097,0.73,0.299,0.948c0.202,0.217,0.493,0.326,0.878,0.326c0.443,0,0.816-0.117,1.111-0.351
			L124.672,211.917z"/>
		<path class="st0" d="M136.815,204.688c0.66,0.6,0.994,1.503,0.994,2.713v4.979h-1.88v-1.033c-0.241,0.371-0.59,0.654-1.041,0.85
			c-0.45,0.196-0.994,0.293-1.631,0.293c-0.637,0-1.192-0.109-1.67-0.326c-0.478-0.216-0.847-0.518-1.103-0.907
			c-0.26-0.386-0.392-0.823-0.392-1.311c0-0.765,0.283-1.377,0.85-1.839c0.567-0.46,1.46-0.691,2.683-0.691h2.194v-0.126
			c0-0.594-0.179-1.05-0.532-1.369c-0.357-0.318-0.885-0.478-1.584-0.478c-0.478,0-0.948,0.076-1.406,0.223
			c-0.462,0.15-0.854,0.355-1.173,0.619l-0.777-1.447c0.443-0.34,0.979-0.598,1.604-0.779c0.629-0.181,1.289-0.272,1.988-0.272
			C135.196,203.789,136.151,204.09,136.815,204.688z M135.002,210.702c0.384-0.229,0.66-0.555,0.819-0.979v-0.986h-2.054
			c-1.146,0-1.716,0.377-1.716,1.13c0,0.359,0.144,0.647,0.431,0.858c0.283,0.212,0.683,0.318,1.192,0.318
			C134.171,211.044,134.613,210.929,135.002,210.702z"/>
		<path class="st0" d="M147.98,204.729c0.645,0.625,0.967,1.553,0.967,2.783v4.868h-1.988v-4.614c0-0.742-0.175-1.301-0.524-1.678
			c-0.35-0.377-0.847-0.565-1.495-0.565c-0.73,0-1.309,0.221-1.732,0.66c-0.427,0.441-0.637,1.074-0.637,1.901v4.295h-1.988v-8.495
			h1.891v1.099c0.33-0.392,0.742-0.689,1.243-0.891c0.497-0.202,1.06-0.303,1.685-0.303
			C146.473,203.789,147.332,204.102,147.98,204.729z"/>
		<path class="st0" d="M153.883,203.44v0.509h2.338v1.59h-2.272v6.841h-1.988v-6.841h-1.402v-1.59h1.402v-0.54
			c0-0.913,0.264-1.631,0.792-2.155c0.532-0.526,1.278-0.788,2.245-0.788c0.761,0,1.363,0.153,1.798,0.462l-0.559,1.495
			c-0.338-0.233-0.703-0.35-1.095-0.35C154.303,202.073,153.883,202.527,153.883,203.44z"/>
		<path class="st0" d="M159.402,211.935c-0.691-0.371-1.227-0.889-1.616-1.551c-0.388-0.662-0.579-1.414-0.579-2.25
			c0-0.839,0.19-1.586,0.579-2.243c0.388-0.658,0.924-1.173,1.616-1.544c0.687-0.371,1.464-0.557,2.322-0.557
			c0.87,0,1.647,0.186,2.338,0.557c0.687,0.371,1.227,0.885,1.616,1.544c0.384,0.656,0.579,1.404,0.579,2.243
			c0,0.837-0.194,1.588-0.579,2.25c-0.388,0.662-0.928,1.181-1.616,1.551c-0.691,0.371-1.468,0.555-2.338,0.555
			C160.866,212.49,160.089,212.306,159.402,211.935z M163.537,210.057c0.478-0.487,0.715-1.13,0.715-1.924
			c0-0.796-0.237-1.437-0.715-1.924c-0.478-0.489-1.083-0.732-1.814-0.732c-0.734,0-1.336,0.243-1.806,0.732
			c-0.474,0.487-0.707,1.128-0.707,1.924c0,0.794,0.233,1.437,0.707,1.924c0.47,0.487,1.072,0.732,1.806,0.732
			C162.454,210.789,163.06,210.545,163.537,210.057z"/>
		<path class="st0" d="M173.394,203.789v1.893c-0.171-0.031-0.326-0.047-0.462-0.047c-0.777,0-1.379,0.225-1.814,0.676
			c-0.435,0.45-0.652,1.099-0.652,1.948v4.12h-1.988v-8.495h1.891v1.241C170.943,204.236,171.949,203.789,173.394,203.789z"/>
		<path class="st0" d="M183.704,200.578v11.802h-1.907v-1.097c-0.33,0.402-0.738,0.705-1.219,0.907
			c-0.482,0.2-1.014,0.301-1.596,0.301c-0.819,0-1.553-0.179-2.206-0.54c-0.652-0.361-1.161-0.872-1.534-1.536
			c-0.373-0.662-0.555-1.423-0.555-2.282c0-0.86,0.183-1.617,0.555-2.276c0.373-0.656,0.882-1.165,1.534-1.526
			c0.652-0.361,1.386-0.542,2.206-0.542c0.559,0,1.076,0.095,1.542,0.287c0.466,0.19,0.862,0.478,1.192,0.858v-4.357H183.704z
			 M180.508,210.463c0.381-0.217,0.684-0.528,0.905-0.93c0.225-0.404,0.334-0.87,0.334-1.4s-0.109-0.998-0.334-1.4
			c-0.221-0.404-0.524-0.713-0.905-0.93c-0.384-0.217-0.812-0.326-1.289-0.326s-0.905,0.109-1.289,0.326
			c-0.381,0.217-0.683,0.526-0.905,0.93c-0.225,0.402-0.334,0.87-0.334,1.4s0.109,0.996,0.334,1.4
			c0.221,0.402,0.524,0.713,0.905,0.93c0.384,0.217,0.812,0.326,1.289,0.326S180.124,210.68,180.508,210.463z"/>
		<path class="st0" d="M194.593,208.768h-6.664c0.117,0.627,0.419,1.122,0.913,1.487c0.493,0.367,1.107,0.55,1.837,0.55
			c0.936,0,1.705-0.307,2.307-0.922l1.068,1.225c-0.384,0.456-0.866,0.8-1.449,1.033c-0.583,0.233-1.243,0.35-1.973,0.35
			c-0.932,0-1.755-0.184-2.466-0.555c-0.711-0.371-1.258-0.889-1.647-1.551c-0.388-0.662-0.579-1.414-0.579-2.25
			c0-0.827,0.186-1.573,0.563-2.235c0.377-0.662,0.897-1.181,1.569-1.551c0.668-0.371,1.417-0.557,2.256-0.557
			c0.827,0,1.569,0.184,2.221,0.55c0.649,0.365,1.161,0.88,1.526,1.544c0.365,0.662,0.548,1.429,0.548,2.297
			C194.625,208.317,194.613,208.513,194.593,208.768z M188.714,205.945c-0.439,0.377-0.707,0.878-0.8,1.503h4.819
			c-0.085-0.614-0.346-1.113-0.781-1.495c-0.435-0.381-0.975-0.571-1.623-0.571C189.693,205.381,189.157,205.57,188.714,205.945z"/>
		<path class="st0" d="M201.782,203.789v1.893c-0.171-0.031-0.326-0.047-0.462-0.047c-0.777,0-1.379,0.225-1.814,0.676
			c-0.435,0.45-0.652,1.099-0.652,1.948v4.12h-1.988v-8.495h1.891v1.241C199.331,204.236,200.337,203.789,201.782,203.789z"/>
		<path class="st0" d="M211.102,204.729c0.645,0.625,0.967,1.553,0.967,2.783v4.868h-1.988v-4.614c0-0.742-0.175-1.301-0.524-1.678
			c-0.35-0.377-0.847-0.565-1.495-0.565c-0.73,0-1.309,0.221-1.732,0.66c-0.427,0.441-0.637,1.074-0.637,1.901v4.295h-1.988v-8.495
			h1.891v1.099c0.33-0.392,0.742-0.689,1.243-0.891c0.497-0.202,1.06-0.303,1.685-0.303
			C209.595,203.789,210.454,204.102,211.102,204.729z"/>
		<path class="st0" d="M214.951,212.133c-0.245-0.239-0.365-0.532-0.365-0.883c0-0.35,0.12-0.641,0.365-0.874
			c0.245-0.233,0.551-0.35,0.92-0.35c0.361,0,0.66,0.117,0.901,0.35c0.237,0.233,0.357,0.524,0.357,0.874
			c0,0.351-0.12,0.645-0.357,0.883c-0.241,0.239-0.54,0.357-0.901,0.357C215.502,212.49,215.195,212.372,214.951,212.133z
			 M214.694,201.246h2.357l-0.4,7.443h-1.573L214.694,201.246z"/>
	</g>
</g>
</svg>
